<?xml version="1.0" encoding="UTF-8"?>
<svg width="125px" height="71px" viewBox="0 0 125 71" version="1.1" xmlns="http://www.w3.org/2000/svg" xmlns:xlink="http://www.w3.org/1999/xlink">
    <!-- Generator: Sketch 55.2 (78181) - https://sketchapp.com -->
    <title>Fill 12</title>
    <desc>Created with Sketch.</desc>
    <g id="Page-1" stroke="none" stroke-width="1" fill="none" fill-rule="evenodd">
        <g id="Desktop-Copy-4" transform="translate(-407.000000, -3810.000000)" fill="#FF551A">
            <g id="Group-3" transform="translate(407.000000, 3810.000000)">
                <path d="M80.3886529,9.80101293 C85.7375945,7.8531522 91.6613426,6.82464079 97.5134531,6.82464079 C102.468388,6.82464079 106.550026,7.52396032 109.589507,8.46377754 L57.7767529,27.3215256 C61.5172596,21.3619587 69.3854571,13.8076021 80.3886529,9.80101293 L80.3886529,9.80101293 Z M77.0182739,5.52834118 C77.2655942,5.00470436 77.6971256,4.60558053 78.2395246,4.40942993 L78.5738335,4.28832826 C79.5426469,3.93525718 80.6069771,4.32585272 81.1391422,5.16162484 C80.4091208,5.39188859 79.6842164,5.63579759 78.9712516,5.89505752 C78.2497586,6.15943441 77.5453221,6.44769051 76.8425912,6.73935792 C76.7811875,6.33000015 76.8391799,5.91381975 77.0182739,5.52834118 L77.0182739,5.52834118 Z M53.7053488,33.0934702 C53.9441408,33.0934702 54.1846385,33.0525344 54.4149022,32.9689572 L115.854387,10.6060832 C116.598054,10.3348837 117.12169,9.66797166 117.210385,8.8816636 C117.297373,8.0970612 116.932362,7.32951538 116.26545,6.90480669 C112.134348,4.2508038 105.122391,2.66795374 97.5168644,2.66795374 C93.3823509,2.66795374 89.2171356,3.15236044 85.2088407,4.06829845 C83.9790617,0.856545594 80.3886529,-0.801353387 77.1530209,0.38237284 L76.8204177,0.501768857 C75.2324506,1.07998671 73.9651472,2.24153939 73.2521824,3.77321973 C72.5528629,5.27590388 72.4744026,6.95768207 73.0236243,8.52176989 C61.7782252,14.3278276 53.848624,23.5741963 51.7233749,30.3985315 C51.4879941,31.1524321 51.7012013,31.974559 52.2708909,32.5203693 C52.6631921,32.8939083 53.1783006,33.0934702 53.7053488,33.0934702 L53.7053488,33.0934702 Z M109.540043,66.8433129 L66.6683449,66.8433129 C64.6403183,65.2024705 56.9870336,58.3167317 55.5184626,46.8086613 L119.835391,46.8086613 C119.410683,51.3491212 117.570278,62.1152307 109.540043,66.8433129 L109.540043,66.8433129 Z M39.8008297,53.406144 C39.7735392,53.5494193 39.6541432,53.6244682 39.5466868,53.6244682 L4.37262013,47.3391207 C4.22763925,47.3118302 4.13212244,47.1804946 4.15941296,47.033808 L5.44036166,39.8717527 C5.46594652,39.7353001 5.58363688,39.6619568 5.73032341,39.6619568 L5.74226301,39.6619568 L40.8719826,45.9421873 C40.9913786,45.9660665 41.1022463,46.1263983 41.0817784,46.2457943 L39.8008297,53.406144 Z M122.037395,42.6536799 L53.2448213,42.6536799 C52.673426,42.6536799 52.1293213,42.8890606 51.7370201,43.3035353 C51.3447189,43.7180101 51.14004,44.2740544 51.1724475,44.8454496 C51.2526134,46.3310772 51.4504697,47.7314219 51.6943787,49.0891252 L45.0082017,47.8934594 L45.1736505,46.97411 C45.380035,45.814263 45.1224808,44.6407707 44.4504518,43.673663 C43.7750114,42.7048496 42.7601453,42.0549941 41.6002983,41.8520209 L6.47399003,35.5700847 C4.02296037,35.1368478 1.77149262,36.7776902 1.35019524,39.1417313 L0.0692465438,46.3037867 C-0.35887346,48.6985297 1.24273883,51.0011671 3.64089311,51.4292871 L38.7654957,57.7095176 C39.0281669,57.7555704 39.2874269,57.7794496 39.5466868,57.7794496 C41.6855811,57.7794496 43.5123402,56.2494749 43.8927018,54.1412824 L44.2764747,51.9853314 L52.7689428,53.5067778 C56.3064763,64.5048567 64.3418282,70.322854 64.7580086,70.6196384 C65.109374,70.8669587 65.5306714,71 65.9604971,71 L110.087559,71 C110.435513,71 110.776645,70.9130115 111.081958,70.7424457 C123.966494,63.7202543 124.113189,45.5021277 124.113189,44.7311706 C124.116591,43.5849688 123.185302,42.6536799 122.037395,42.6536799 L122.037395,42.6536799 Z" id="Fill-12"></path>
            </g>
        </g>
    </g>
</svg>