<?xml version="1.0" encoding="UTF-8"?>
<svg width="98px" height="53px" viewBox="0 0 98 53" version="1.1" xmlns="http://www.w3.org/2000/svg" xmlns:xlink="http://www.w3.org/1999/xlink">
    <!-- Generator: Sketch 55.2 (78181) - https://sketchapp.com -->
    <title>noun_Mouse_1046559</title>
    <desc>Created with Sketch.</desc>
    <g id="Page-1" stroke="none" stroke-width="1" fill="none" fill-rule="evenodd">
        <g id="noun_Mouse_1046559" fill="#000000" fill-rule="nonzero">
            <path d="M2.19,6.51 C5.4,3.19 9.08,2.11 12.55,3.51 C16.61,5.1 19.43,9.81 19.55,15.23 C19.67,20.15 16.26,21.54 12.31,23.15 C8.36,24.76 3.92,26.53 4,32.51 C3.91448018,35.4495815 5.04714399,38.2939066 7.13,40.37 C10.51,43.63 15.48,43.9 16.68,43.92 C21.02,46.01 21.34,51.84 21.34,51.92 C21.34,52.4722847 21.7877153,52.9200051 22.34,52.9200051 L34.51,52.9200051 C34.7896775,52.9208965 35.0569501,52.8046306 35.2469662,52.5994132 C35.4369824,52.3941957 35.5323758,52.1187824 35.51,51.84 L41.43,51.84 C41.8948688,51.8559235 42.3093359,51.5492179 42.43,51.1 C42.6528377,50.1698866 42.418825,49.1892621 41.8,48.46 C41.1130744,47.7345349 40.1925274,47.2742615 39.2,47.16 C46.71,47.61 55.88,47.01 59.79,45.41 C59.8353131,47.4855849 59.3862894,49.5421816 58.48,51.41 C58.301896,51.7184703 58.3013188,52.0983921 58.4784845,52.4074022 C58.6556503,52.7164123 58.9838114,52.9078575 59.34,52.91 L70.64,52.91 C70.9178025,52.9106815 71.1833688,52.795771 71.3730542,52.5928077 C71.5627396,52.3898443 71.6594471,52.1171218 71.64,51.84 L78.84,51.84 C79.1354177,51.8438102 79.4174004,51.7167937 79.6103064,51.4930228 C79.8032124,51.2692518 79.8872953,50.9716321 79.84,50.68 C79.32,47.57 75.33,47.05 73.31,46.99 L73.99,39.13 L74.91,37.91 C77.78,34.1 83.29,30.91 88.15,28.08 C93.94,24.72 98.52,22.08 97.39,18.95 C95.64,14.15 82.39,10.01 78.79,9.32 C77.74,6.85 74.28,5.18 73.85,4.98 C73.519384,4.83696505 73.1373884,4.88280452 72.85,5.1 L70.15,7.23 C69.6181506,6.83149542 69.1228597,6.38640287 68.67,5.9 C68.3743152,5.56560622 67.8928143,5.46767383 67.49,5.66 C65.08,6.81 63.68,8.21 63.32,9.84 C63.1753776,10.503738 63.2098907,11.1939986 63.42,11.84 C60.9036026,13.0877142 58.5688219,14.67227 56.48,16.55 C54.61,16.02 48.33,14.65 37.19,16.14 C27.97,17.38 21.76,27.14 19.52,31.29 C17.52,34.94 15.89,39.29 15.85,41.94 C13.1772754,41.7773329 10.6311313,40.7448275 8.6,39 C6.86034104,37.2854562 5.91752429,34.9211619 6,32.48 C5.94,27.87 9.25,26.48 13.09,24.96 C17.09,23.31 21.73,21.44 21.57,15.14 C21.41,8.84 18.16,3.51 13.28,1.6 C9.07,1.11022302e-15 4.51,1.24 0.75,5.12 C0.366162109,5.51764502 0.377354995,6.15116209 0.77500001,6.53499999 C1.17264503,6.91883789 1.8061621,6.90764501 2.19,6.51 Z M40.29,49.77 L34.72,49.77 C34.4760031,49.4254374 34.1789932,49.1216773 33.84,48.87 C32.7995412,48.1849856 31.5855456,47.8103813 30.34,47.79 C30.7065768,47.2194094 31.0404478,46.6284576 31.34,46.02 C32.4630313,46.3029216 33.6016397,46.5199584 34.75,46.67 L34.91,48.17 C34.9377136,48.4339475 35.0692149,48.6760524 35.2755381,48.8429866 C35.4818613,49.0099209 35.7460818,49.0879908 36.01,49.06 C39.01,48.72 40.01,49.38 40.25,49.68 L40.29,49.77 Z M36.76,47 L36.76,46.92 L37.45,46.98 L36.76,47 Z M71.45,48.64 C71.6537488,48.8490557 71.938675,48.9586427 72.23,48.94 C73.8503627,48.8104548 75.4766269,49.1033202 76.95,49.79 L70.82,49.79 C69.943031,48.7772052 68.7474844,48.0930281 67.43,47.85 C68.24,46.73 69.61,44.85 71.65,42.11 L71.15,47.86 C71.1317046,48.1463879 71.2373272,48.4268339 71.44,48.63 L71.45,48.64 Z M21.18,32.17 C23.28,28.3 29.05,19.17 37.35,18.05 C50.02,16.35 56.21,18.52 56.27,18.54 C56.6148361,18.66108 56.998259,18.5843954 57.27,18.34 C57.27,18.34 61.85,14.17 64.96,13.34 C65.279306,13.2452997 65.5305091,12.9978459 65.63,12.68 C65.7327021,12.3610953 65.6688797,12.0119489 65.46,11.75 C65.1416363,11.3120694 65.0252254,10.7591176 65.14,10.23 C65.5875894,9.11403307 66.467724,8.22668424 67.58,7.77 C68.1478796,8.29093176 68.7455539,8.77842028 69.37,9.23 L69.49,9.32 C71.5860381,10.773178 73.7592188,12.1118039 76,13.33 C76.4832492,13.6061424 77.0988576,13.4382492 77.375,12.955 C77.6511424,12.4717508 77.4832492,11.8561424 77,11.58 C75.93,10.99 73.72,9.7 71.77,8.38 L73.49,7 C74.67,7.65 76.7,9 77,10.37 C77.1047542,10.8351526 77.5233401,11.1616496 78,11.15 C80,11.15 94.12,15.84 95.48,19.56 C96.04,21.09 91.3,23.84 87.11,26.27 C82.11,29.19 76.39,32.49 73.28,36.62 C67.08,44.81 64.86,48 64.84,48 C64.6308551,48.3010948 64.6032333,48.6924943 64.7680181,49.0199781 C64.932803,49.3474619 65.263574,49.5585236 65.63,49.57 C65.63,49.57 68.09,49.67 69.13,50.82 L60.82,50.82 C61.6472729,48.4569813 61.9276433,45.9370664 61.64,43.45 C61.5986954,43.0058908 61.2682676,42.6428283 60.83,42.56 C60.3954242,42.4809668 59.9604727,42.69641 59.76,43.09 C58.56,44.74 45.06,45.96 35.94,44.83 C35.8144976,44.8057121 35.6855024,44.8057121 35.56,44.83 C34.0230812,44.6331071 32.5069777,44.2984264 31.03,43.83 C30.5170002,43.6628145 29.9638711,43.9327415 29.78,44.44 C29.2170386,45.7897081 28.491692,47.0657808 27.62,48.24 C27.3706612,48.5722431 27.3526852,49.0240357 27.574839,49.3750386 C27.7969927,49.7260415 28.2130103,49.9031547 28.62,49.82 C29.35,49.7 31.5,49.57 32.7,50.44 C32.845244,50.5462004 32.9763075,50.6705427 33.09,50.81 L23.23,50.81 C22.95,48.81 21.86,44.27 17.75,42.16 C17.61,41 18.54,37.05 21.18,32.17 Z" id="Shape"></path>
        </g>
    </g>
</svg>